#!OML:ASF \\sashay\E\Suitcase\Project 1\Capture day 1\Session 1\Male1.ASF
:FULLY-SPECIFIED
:DEGREES
1409
root -1.75719 17.8028 8.61067 8.70845 -10.2918 4.33207
lowerback 26.6272 -0.147209 11.154
upperback 8.55484 3.17093 9.02826
thorax -5.05111 1.44277 2.70663
lowerneck -3.3817 -6.8343 -16.9344
upperneck 16.1178 -8.85958 7.42801
head 6.57544 -4.76222 4.49456
rclavicle 1.59028e-014 7.63333e-014
rhumerus 4.14647 -24.924 -62.4664
rradius 18.0109
rwrist -0.2061
rhand -15.2094 14.7354
rfingers 7.12502
rthumb 10.9628 -14.9584
lclavicle 1.59028e-014 7.63333e-014
lhumerus -31.438 -16.0085 96.9887
lradius 56.5629
lwrist 1.03592
lhand -0.73672 43.9844
lfingers 7.12502
lthumb 24.8845 72.3846
rfemur -17.7044 3.02808 17.2763
rtibia 18.1411
rfoot -6.97299 -9.55874
rtoes 15.1705
lfemur -16.0825 -1.03982 -14.2979
ltibia 19.8827
lfoot -0.133347 6.37493
ltoes -6.95209
1410
root -1.75702 17.8083 8.59026 8.95354 -10.1391 5.59768
lowerback 26.8074 -0.180227 10.174
upperback 8.52771 2.91531 8.89142
thorax -5.23507 1.31576 3.17242
lowerneck -4.07548 -7.17952 -18.9479
upperneck 16.9365 -9.29663 8.99091
head 7.19427 -4.98846 5.27107
rclavicle -5.40694e-014 6.36111e-015
rhumerus 4.96051 -24.5193 -62.3276
rradius 17.6296
rwrist 0.112395
rhand -15.1914 15.2791
rfingers 7.12502
rthumb 10.9801 -14.4138
lclavicle -5.40694e-014 6.36111e-015
lhumerus -31.6599 -15.2035 97.0407
lradius 57.1478
lwrist 0.970754
lhand -0.401105 44.2559
lfingers 7.12502
lthumb 25.2061 72.6113
rfemur -18.3976 2.58055 15.8887
rtibia 18.4223
rfoot -7.15613 -9.427
rtoes 14.8884
lfemur -16.6682 -1.15376 -15.6681
ltibia 19.6908
lfoot -1.84109 6.42945
ltoes -14.7441
1411
root -1.73687 17.8126 8.56585 9.3041 -9.94021 5.96033
lowerback 27.0568 -0.156613 10.4757
upperback 8.51846 3.05094 8.72241
thorax -5.33562 1.37971 2.77242
lowerneck -4.20431 -7.4291 -16.9574
upperneck 16.3475 -9.58124 7.73072
head 6.90021 -5.07288 4.497
rclavicle -2.22639e-014 3.81667e-014
rhumerus 4.88046 -24.2947 -61.8599
rradius 17.6795
rwrist -1.09543
rhand -15.4764 15.5714
rfingers 7.12502
rthumb 10.7053 -14.1359
lclavicle -2.22639e-014 3.81667e-014
lhumerus -31.5435 -15.9964 97.0567
lradius 56.8338
lwrist 1.05135
lhand -0.803137 43.5014
lfingers 7.12502
lthumb 24.8209 71.9104
rfemur -19.0327 1.64134 15.5001
rtibia 18.7309
rfoot -7.06898 -8.69682
rtoes 13.6176
lfemur -17.1993 -1.18055 -16.1552
ltibia 19.5572
lfoot -1.02366 6.38173
ltoes -16.0887
1412
root -1.77769 17.8003 8.55239 9.60489 -10.3581 5.56403
lowerback 27.37 0.150642 10.2749
upperback 8.71304 3.42636 9.04442
thorax -5.29608 1.55402 3.13143
lowerneck -4.71887 -7.76671 -17.6737
upperneck 16.6581 -9.98336 8.30002
head 7.21272 -5.26077 4.73659
rclavicle 1.27222e-014 3.81667e-014
rhumerus 5.11078 -24.2044 -61.568
rradius 18.2932
rwrist -1.18521
rhand -15.0381 13.8865
rfingers 7.12502
rthumb 11.128 -15.7984
lclavicle 1.27222e-014 3.81667e-014
lhumerus -31.6207 -15.8686 97.2004
lradius 57.129
lwrist 1.12137
lhand -0.463188 44.0371
lfingers 7.12502
lthumb 25.1466 72.4009
rfemur -19.7658 2.97769 15.9242
rtibia 19.2657
rfoot -7.21337 -9.57461
rtoes 14.3594
lfemur -17.2975 -0.885737 -15.4783
ltibia 19.3395
lfoot 0.438843 6.27835
ltoes -6.66489
1413
root -1.78308 17.7973 8.53871 9.87339 -10.3319 5.73718
lowerback 27.5942 0.172758 10.1898
upperback 8.80267 3.45934 9.11368
thorax -5.31344 1.56791 3.24653
lowerneck -5.08405 -7.95926 -17.2119
upperneck 16.5263 -10.1589 7.89463
head 7.21183 -5.33327 4.49471
rclavicle 3.81667e-014 2.54444e-014
rhumerus 5.55142 -25.1384 -61.6055
rradius 18.3738
rwrist -0.430636
rhand -14.8322 14.8289
rfingers 7.12502
rthumb 11.3266 -14.8452
lclavicle 3.81667e-014 2.54444e-014
lhumerus -31.7024 -15.6755 97.1845
lradius 57.3347
lwrist 1.11394
lhand -0.31568 44.2091
lfingers 7.12502
lthumb 25.288 72.553
rfemur -20.3292 2.70821 15.7638
rtibia 19.64
rfoot -7.20859 -9.27029
rtoes 14.1239
lfemur -17.6173 -0.877347 -15.6009
ltibia 19.325
lfoot 0.602697 6.32239
ltoes -4.42672
1414
root -1.78719 17.7966 8.51807 10.0802 -10.4755 5.75504
lowerback 27.8333 0.131976 10.1217
upperback 8.96934 3.40574 9.196
thorax -5.24951 1.54197 3.39492
lowerneck -5.45615 -8.15934 -17.9271
upperneck 16.7375 -10.394 8.4865
head 7.45072 -5.43999 4.76316
rclavicle -2.8625e-014 -2.54444e-014
rhumerus 6.17304 -24.8869 -61.6404
rradius 18.3623
rwrist -0.42004
rhand -14.9663 14.4116
rfingers 7.12502
rthumb 11.1972 -15.2697
lclavicle -2.8625e-014 -2.54444e-014
lhumerus -31.7512 -15.1561 97.1629
lradius 57.4195
lwrist 1.08586
lhand -0.835141 43.7052
lfingers 7.12502
lthumb 24.7902 72.1184
rfemur -20.842 2.68449 15.7525
rtibia 19.8838
rfoot -7.19748 -9.17147
rtoes 13.7224
lfemur -17.8844 -0.804413 -15.5563
ltibia 19.3461
lfoot 1.02177 6.41422
ltoes -4.3178
